<svg width="24" height="24" viewBox="0 0 24 24" fill="none" xmlns="http://www.w3.org/2000/svg">
<path d="M12.3 9.69796C14.233 9.69796 15.8 8.16294 15.8 6.26939C15.8 4.37585 14.233 2.84082 12.3 2.84082C10.367 2.84082 8.79999 4.37585 8.79999 6.26939C8.79999 8.16294 10.367 9.69796 12.3 9.69796Z" stroke="#0962E8" stroke-linecap="round" stroke-linejoin="round"/>
<path d="M2.30005 20.9633C2.30005 16.6351 6.3295 13.1265 11.3 13.1265" stroke="#0962E8" stroke-linecap="round" stroke-linejoin="round"/>
<path d="M16.225 14.5959C15.1619 14.5959 14.3 15.5798 14.3 16.7934C14.3 18.9907 16.575 20.9884 17.8 21.4531C19.025 20.9884 21.3 18.9907 21.3 16.7934C21.3 15.5798 20.4382 14.5959 19.3751 14.5959C18.724 14.5959 18.1484 14.9649 17.8 15.5296C17.4517 14.9649 16.8761 14.5959 16.225 14.5959Z" stroke="#0962E8" stroke-linecap="round" stroke-linejoin="round"/>
</svg>
