<svg width="157" height="59" viewBox="0 0 157 59" fill="none" xmlns="http://www.w3.org/2000/svg">
<path d="M68 14.75C68 6.6038 74.5322 0 82.5902 0H142.41C150.468 0 157 6.6038 157 14.75V44.25C157 52.3962 150.468 59 142.41 59H82.5902C74.5322 59 68 52.3962 68 44.25V14.75Z" fill="white"/>
<path d="M0 47H6.76452V33.3333H17.2612V26.7619H6.76452V19.7619H20.1536V13.1905H0V47Z" fill="#29374E"/>
<path d="M27.5774 19.2857C29.8634 19.2857 31.6828 17.4286 31.6828 15.1429C31.6828 12.8571 29.8634 11 27.5774 11C25.3848 11 23.5187 12.8571 23.5187 15.1429C23.5187 17.4286 25.3848 19.2857 27.5774 19.2857ZM24.4051 47H30.7964V23.1905H24.4051V47Z" fill="#29374E"/>
<path d="M36.9337 47H43.325V35.381C43.325 30.8095 45.5176 28.619 48.5033 28.619C51.1625 28.619 52.6087 30.7143 52.6087 34.1429V47H59V33.0476C59 26.8571 55.6411 22.6667 49.9962 22.6667C46.9638 22.6667 44.5846 24 43.325 25.9048V23.1905H36.9337V47Z" fill="#29374E"/>
<path d="M101.359 46.7165H110.243L93.562 29.2835L107.36 13.1732H98.9017L86.8046 27.3937V13.1732H80V46.7165H86.8046V31.5039L101.359 46.7165Z" fill="#0962E8"/>
<path d="M115.693 19.2205C118.008 19.2205 119.851 17.378 119.851 15.1102C119.851 12.8425 118.008 11 115.693 11C113.472 11 111.582 12.8425 111.582 15.1102C111.582 17.378 113.472 19.2205 115.693 19.2205ZM112.48 46.7165H118.953V23.0945H112.48V46.7165Z" fill="#0962E8"/>
<path d="M136.889 47C138.732 47 139.913 46.811 141 46.4803V40.7638C140.244 41.0472 139.346 41.189 138.354 41.189C135.519 41.189 134.337 40.0551 134.337 37.1732V28.7638H141V23.0945H134.337V16.5276H127.863V23.0945H123.091V28.7638H127.863V38.4488C127.863 44.2598 131.88 47 136.889 47Z" fill="#0962E8"/>
</svg>
