<svg width="24" height="24" viewBox="0 0 24 24" fill="none" xmlns="http://www.w3.org/2000/svg">
<path d="M7.21739 6.7619C10.0989 6.7619 12.4348 5.69591 12.4348 4.38095C12.4348 3.06599 10.0989 2 7.21739 2C4.3359 2 2 3.06599 2 4.38095C2 5.69591 4.3359 6.7619 7.21739 6.7619Z" stroke="#0962E8" stroke-linecap="round" stroke-linejoin="round"/>
<path d="M2 4.85645C2 4.85645 2 6.87483 2 8.18978C2 9.50473 4.3359 10.5707 7.21739 10.5707C10.0989 10.5707 12.4348 9.50473 12.4348 8.18978C12.4348 7.41092 12.4348 4.85645 12.4348 4.85645" stroke="#0962E8" stroke-linecap="round" stroke-linejoin="round"/>
<path d="M2 7.71533C2 7.71533 2 10.4065 2 12.1598C2 13.913 4.3359 15.3344 7.21739 15.3344C10.0989 15.3344 12.4348 13.913 12.4348 12.1598C12.4348 11.1213 12.4348 7.71533 12.4348 7.71533" stroke="#0962E8" stroke-linecap="round" stroke-linejoin="round"/>
<path d="M2 11.5239C2 11.5239 2 14.2151 2 15.9684C2 17.7216 4.3359 19.143 7.21739 19.143C10.0989 19.143 12.4348 17.7216 12.4348 15.9684C12.4348 14.9299 12.4348 11.5239 12.4348 11.5239" stroke="#0962E8" stroke-linecap="round" stroke-linejoin="round"/>
<path d="M2 16.2847C2 16.2847 2 18.303 2 19.618C2 20.933 4.3359 21.999 7.21739 21.999C10.0989 21.999 12.4348 20.933 12.4348 19.618C12.4348 18.8391 12.4348 16.2847 12.4348 16.2847" stroke="#0962E8" stroke-linecap="round" stroke-linejoin="round"/>
<path d="M17.2172 15.3339C19.8585 15.3339 21.9998 14.0547 21.9998 12.4768C21.9998 10.8988 19.8585 9.61963 17.2172 9.61963C14.5758 9.61963 12.4346 10.8988 12.4346 12.4768C12.4346 14.0547 14.5758 15.3339 17.2172 15.3339Z" stroke="#0962E8" stroke-linecap="round" stroke-linejoin="round"/>
<path d="M12.4346 11.5239C12.4346 11.5239 12.4346 14.2151 12.4346 15.9684C12.4346 17.7216 14.5758 19.143 17.2172 19.143C19.8585 19.143 21.9998 17.7216 21.9998 15.9684C21.9998 14.9299 21.9998 11.5239 21.9998 11.5239" stroke="#0962E8" stroke-linecap="round" stroke-linejoin="round"/>
<path d="M12.4346 16.2847C12.4346 16.2847 12.4346 18.303 12.4346 19.618C12.4346 20.933 14.5758 21.999 17.2172 21.999C19.8585 21.999 21.9998 20.933 21.9998 19.618C21.9998 18.8391 21.9998 16.2847 21.9998 16.2847" stroke="#0962E8" stroke-linecap="round" stroke-linejoin="round"/>
</svg>
