<svg width="24" height="24" viewBox="0 0 24 24" fill="none" xmlns="http://www.w3.org/2000/svg">
<path d="M11.52 6.0343C13.0348 6.0343 14.2628 4.80627 14.2628 3.29144C14.2628 1.77661 13.0348 0.548584 11.52 0.548584C10.0051 0.548584 8.7771 1.77661 8.7771 3.29144C8.7771 4.80627 10.0051 6.0343 11.52 6.0343Z" stroke="#0962E8" stroke-linecap="round" stroke-linejoin="round"/>
<path d="M13.1657 9.32574H9.87428C9.36482 9.32574 9.11012 9.32574 8.89557 9.34686C6.81193 9.55209 5.16347 11.2005 4.95825 13.2842C4.93713 13.4987 4.93713 13.7534 4.93713 14.2629H18.1028C18.1028 13.7534 18.1028 13.4987 18.0817 13.2842C17.8765 11.2005 16.228 9.55209 14.1444 9.34686C13.9299 9.32574 13.6752 9.32574 13.1657 9.32574Z" stroke="#0962E8" stroke-linecap="round" stroke-linejoin="round"/>
<path d="M20.8457 13.0474C21.8889 13.7189 22.4914 14.5115 22.4914 15.3603C22.4914 17.7841 17.5794 19.7489 11.52 19.7489C5.46066 19.7489 0.548584 17.7841 0.548584 15.3603C0.548584 14.5115 1.15106 13.7189 2.1943 13.0474" stroke="#0962E8" stroke-linecap="round" stroke-linejoin="round"/>
<path d="M8.7771 17.0057L11.52 19.7485L8.7771 22.4914" stroke="#0962E8" stroke-linecap="round" stroke-linejoin="round"/>
</svg>
