<svg width="24" height="24" viewBox="0 0 24 24" fill="none" xmlns="http://www.w3.org/2000/svg">
<path d="M7.15685 9.9858C9.0504 9.9858 10.5854 8.4508 10.5854 6.55725C10.5854 4.66369 9.0504 3.12866 7.15685 3.12866C5.26329 3.12866 3.72827 4.66369 3.72827 6.55725C3.72827 8.4508 5.26329 9.9858 7.15685 9.9858Z" stroke="#0962E8" stroke-linecap="round" stroke-linejoin="round"/>
<path d="M17.4425 20.2715C19.336 20.2715 20.871 18.7364 20.871 16.8429C20.871 14.9494 19.336 13.4143 17.4425 13.4143C15.5489 13.4143 14.0139 14.9494 14.0139 16.8429C14.0139 18.7364 15.5489 20.2715 17.4425 20.2715Z" stroke="#0962E8" stroke-linecap="round" stroke-linejoin="round"/>
<path d="M12.3 21.7C6.77721 21.7 2.30005 17.2229 2.30005 11.7L5.63336 13.3667" stroke="#0962E8" stroke-linecap="round" stroke-linejoin="round"/>
<path d="M12.3 1.70001C17.8228 1.70001 22.3 6.17714 22.3 11.7L18.9666 10.0334" stroke="#0962E8" stroke-linecap="round" stroke-linejoin="round"/>
</svg>
